<svg width="58" height="58" viewBox="0 0 58 58" fill="none" xmlns="http://www.w3.org/2000/svg">
<rect width="58" height="58" rx="29" fill="#685CFC"/>
<path d="M13.793 18.4175C13.793 17.722 14.3568 17.1582 15.0523 17.1582H18.628C19.778 17.1582 20.7819 17.9372 21.0676 19.0511L21.8739 22.1954H37.7197C39.1106 22.1954 40.2383 23.323 40.2383 24.7139V30.8069C40.2383 32.017 39.3777 33.0561 38.1888 33.2814L24.9072 35.7994C23.5759 36.0518 22.2836 35.2057 21.9825 33.8846L19.6728 23.751L18.628 19.6768H15.0523C14.3568 19.6768 13.793 19.113 13.793 18.4175Z" fill="white"/>
<path d="M23.8673 39.8254C23.8673 41.2164 22.7397 42.344 21.3487 42.344C19.9577 42.344 18.8301 41.2164 18.8301 39.8254C18.8301 38.4345 19.9577 37.3068 21.3487 37.3068C22.7397 37.3068 23.8673 38.4345 23.8673 39.8254Z" fill="white"/>
<path d="M36.4602 39.8254C36.4602 41.2164 35.3326 42.344 33.9416 42.344C32.5506 42.344 31.423 41.2164 31.423 39.8254C31.423 38.4345 32.5506 37.3068 33.9416 37.3068C35.3326 37.3068 36.4602 38.4345 36.4602 39.8254Z" fill="white"/>
</svg>
